<?xml version="1.0" encoding="UTF-8" standalone="no"?>
<!-- Created with Inkscape (http://www.inkscape.org/) -->

<svg
   width="67.310242mm"
   height="67.310242mm"
   viewBox="0 0 67.310242 67.310242"
   version="1.1"
   id="svg5"
   xml:space="preserve"
   inkscape:version="1.2.2 (b0a8486541, 2022-12-01)"
   sodipodi:docname="pubgo.svg"
   xmlns:inkscape="http://www.inkscape.org/namespaces/inkscape"
   xmlns:sodipodi="http://sodipodi.sourceforge.net/DTD/sodipodi-0.dtd"
   xmlns="http://www.w3.org/2000/svg"
   xmlns:svg="http://www.w3.org/2000/svg"><sodipodi:namedview
     id="namedview7"
     pagecolor="#505050"
     bordercolor="#eeeeee"
     borderopacity="1"
     inkscape:showpageshadow="0"
     inkscape:pageopacity="0"
     inkscape:pagecheckerboard="0"
     inkscape:deskcolor="#505050"
     inkscape:document-units="mm"
     showgrid="false"
     inkscape:zoom="1.1893044"
     inkscape:cx="-1140.1623"
     inkscape:cy="5.8857934"
     inkscape:window-width="1920"
     inkscape:window-height="1007"
     inkscape:window-x="0"
     inkscape:window-y="0"
     inkscape:window-maximized="1"
     inkscape:current-layer="layer1" /><defs
     id="defs2" /><g
     inkscape:label="Layer 1"
     inkscape:groupmode="layer"
     id="layer1"
     transform="translate(508.08921,42.504496)"><rect
       style="fill:#222222;fill-opacity:1;stroke-width:0.0295396;stroke-linejoin:round"
       id="rect474"
       width="67.310234"
       height="67.310234"
       x="-508.0892"
       y="-42.504494"
       ry="16.12718"
       inkscape:export-filename="../work/src/git.reppard.com/go-blog/go.mod.svg"
       inkscape:export-xdpi="86.7442"
       inkscape:export-ydpi="86.7442" /><path
       id="path304-5"
       style="fill:#aea1ea;fill-opacity:1;stroke-width:0.264583"
       d="m -485.40326,12.239593 c -0.41566,-0.50083 -0.25151,-1.2064 0.92676,-3.9839502 0.49386,-1.16417 1.26182,-3.4705 1.70655,-5.1251695 1.0822,-4.02636003 1.87939,-5.55086 4.14821,-7.93277 1.0508,-1.10318 1.85317,-2.06316 1.78305,-2.13328 -0.0701,-0.0701 -1.87985,0.03 -4.02161,0.22243 -2.14176,0.19246 -6.99366,0.40829 -10.782,0.47962 -6.18779,0.11651 -6.92486,0.0851 -7.2516,-0.30856 -0.23021,-0.27739 -0.27127,-0.53068 -0.11186,-0.69009 0.13852,-0.13852 3.34993,-0.3705 7.13647,-0.51551 3.78654,-0.14502 7.51823,-0.38383 8.29263,-0.53069 1.95611,-0.37097 5.91629,-0.34319 6.30369,0.0442 0.23861,0.23861 0.43505,0.19922 0.84171,-0.1688 0.44357,-0.40143 0.59874,-0.42338 0.94739,-0.13403 0.35982,0.29862 0.70484,0.0598 2.5185,-1.7432193 1.15587,-1.14908 2.10157,-2.17589 2.10157,-2.28179 0,-0.10591 -0.80367,-0.22777 -1.78594,-0.2708 -1.58347,-0.0694 -1.78593,-0.13822 -1.78593,-0.6074 0,-0.48963 0.20146,-0.53478 2.69704,-0.6044 l 2.69705,-0.0752 3.05817,-3.20948 c 1.682,-1.76521 3.02817,-3.23264 2.99149,-3.26096 -0.0367,-0.0283 -0.78105,0.0514 -1.65417,0.17716 -0.87313,0.12576 -5.36539,0.30345 -9.98281,0.39486 -7.74938,0.15342 -8.40859,0.1316 -8.56795,-0.28367 -0.0949,-0.24743 -0.0481,-0.57442 0.10413,-0.72663 0.22979,-0.2298 11.20276,-0.70064 19.81029,-0.85004 1.61709,-0.0281 1.63312,-0.036 2.33929,-1.15256 0.87168,-1.37832 1.85646,-2.183 2.67158,-2.183 0.44696,0 0.80143,0.31876 1.29941,1.16851 0.4174,0.71224 1.53234,1.82276 2.85542,2.84409 4.37755,3.37919 5.77169,5.09971 5.38398,6.64445 -0.0832,0.33158 -1.5338,1.96869 -3.22351,3.63802 -1.6897,1.6693294 -4.49657,4.7894793 -6.23746,6.9336693 -2.64844,3.26196997 -3.86458,4.48601995 -7.44815,7.4965795 -2.35559,1.97893 -4.41732,3.91554 -4.58162,4.30356 -0.266,0.62818 -0.62918,0.7883 -3.31379,1.4609499 -1.65828,0.41549 -4.56683,1.2635703 -6.46345,1.8846103 -4.5648,1.49473 -4.98765,1.57921 -5.40253,1.07931 z m 4.19917,-2.15442 c 0.13301,-0.1330203 -1.05084,-1.4326603 -1.30503,-1.4326603 -0.0968,0 -0.32026,0.31663 -0.49658,0.70362 -0.25616,0.5622 -0.25139,0.7488603 0.0237,0.9286803 0.31339,0.20487 1.50751,0.0708 1.77793,-0.19964 z m 7.24371,-2.0083702 1.26903,-0.37435 -1.06753,-0.85789 c -0.58714,-0.47184 -1.53406,-1.538 -2.10427,-2.36924 -0.57021,-0.83124 -1.66333,-2.2079095 -2.42915,-3.0592596 -1.3824,-1.53677996 -1.39475,-1.54344996 -1.71771,-0.92603995 -0.17892,0.34203 -0.70449,1.94630005 -1.16794,3.56504955 l -0.84265,2.94318 1.27893,1.29974 1.27892,1.2997499 2.11667,-0.5733 c 1.16417,-0.31531 2.68773,-0.7417499 3.3857,-0.9476399 z m 3.77469,-2.36141 c 0.42741,-0.45125 2.08809,-1.92263 3.6904,-3.2697395 3.07304,-2.58358006 5.05324,-4.60203 6.99489,-7.13002 0.98387,-1.28099 1.10977,-1.56991 0.76756,-1.76143 -0.5074,-0.28395 -1.97669,-1.51418 -5.62652,-4.7110293 l -2.83041,-2.47914 -5.4386,5.5103593 c -2.99123,3.0307 -5.62735,5.79843 -5.85804,6.15051 -0.40644,0.62031 -0.38589,0.66987 0.66315,1.59898994 0.59543,0.52736001 1.81785,1.93924006 2.71649,3.13753006 1.59352,2.1248495 3.27913,3.7744295 3.85689,3.7744295 0.1579,0 0.63679,-0.36921 1.06419,-0.82046 z m 14.21548,-14.5798495 1.32062,-1.3773893 -0.88513,-0.67313 c -3.43101,-2.60922 -4.84006,-3.88682 -5.96911,-5.41227 -0.70959,-0.95873 -1.35893,-1.74315 -1.44298,-1.74315 -0.17725,-10e-6 -3.15448,3.06466 -3.15448,3.24713 0,0.0672 0.44648,0.42287 0.99219,0.79044 0.5457,0.36757 2.47885,1.99073 4.29589,3.60703 1.81704,1.6162993 3.3529,2.9387293 3.41303,2.9387293 0.0601,0 0.70362,-0.61983 1.42997,-1.37739 z m 4.8372,-5.4356293 c 0.69413,-1.55173 -0.16994,-2.81803 -3.77926,-5.53853 -1.8369,-1.38455 -3.05736,-2.59922 -3.33106,-3.31524 -0.0893,-0.2335 -0.27419,-0.1449 -0.58846,0.28191 -0.25207,0.34233 -1.04433,1.3266 -1.76059,2.18727 l -1.30229,1.56486 1.57071,1.91377 c 1.8879,2.30024 2.25536,2.64799 4.806,4.54814 l 1.98438,1.4783 1.00795,-1.13029 c 0.55438,-0.62166 1.18106,-1.51725 1.39262,-1.99019 z m -46.25526,14.82558925 c -0.48304,-0.0732 -0.7276,-0.27009 -0.7276,-0.58585001 0,-0.59643997 1.36398,-0.81227997 5.13016,-0.81179997 1.47127,1.9e-4 3.66237,-0.13762997 4.86911,-0.30624997 1.68421,-0.23535 2.26691,-0.23373 2.50758,0.007 0.62287,0.62285997 -0.16741,1.20616994 -2.08375,1.53803995 -1.71418,0.29686 -8.09456,0.40144 -9.69551,0.15892 z m -1.74178,-13.47038925 c 0.18752,-0.97376 2.37174,-1.21238 12.32512,-1.34654 9.28283,-0.12511 9.32656,-0.12315 9.32656,0.4196 0,0.29992 -0.20836,0.65392 -0.46302,0.78666 -0.25466,0.13274 -5.14727,0.32752 -10.87245,0.43285 -9.99974,0.18396 -10.40577,0.17244 -10.31621,-0.29257 z m 1.13521,-6.99582 c -0.0994,-0.16086 -0.078,-0.39259 0.0475,-0.51496 0.3375,-0.3289 7.26849,-0.84351 10.01789,-0.7438 2.34058,0.0849 2.38125,0.0977 2.38125,0.74781 v 0.66146 l -6.13297,0.071 c -4.26385,0.0494 -6.18804,-0.0182 -6.31371,-0.22149 z m 23.09776,-5.69077 c -0.0935,-0.0935 -4.92344,-0.26979 -10.73309,-0.39164 -5.80965,-0.12186 -10.87654,-0.30026 -11.25976,-0.39644 -0.92197,-0.2314 -0.94041,-1.10461 -0.0282,-1.33357 0.64123,-0.16094 18.55905,0.31674 24.5991,0.65581 2.88449,0.16192 2.91042,0.16927 2.91042,0.82483 0,0.65672 -0.0191,0.662 -2.65921,0.73628 -1.46257,0.0412 -2.73575,-0.002 -2.82929,-0.0953 z m 8.27115,-1.03243 c -0.70036,-0.84388 0.23058,-1.12637 4.39853,-1.33472 3.3648,-0.16821 3.8999,-0.13845 4.27613,0.23777 0.37737,0.37737 0.38259,0.4764 0.0426,0.80857 -0.28168,0.27521 -1.47221,0.42896 -4.36164,0.56325 -3.58779,0.16676 -4.0113,0.14003 -4.35564,-0.27487 z" /></g></svg>
