<?xml version="1.0" encoding="UTF-8" standalone="no"?>
<!-- Created with Inkscape (http://www.inkscape.org/) -->

<svg
   width="186.91028mm"
   height="40.61095mm"
   viewBox="0 0 186.91028 40.61095"
   version="1.1"
   id="svg5"
   xml:space="preserve"
   xmlns:inkscape="http://www.inkscape.org/namespaces/inkscape"
   xmlns:sodipodi="http://sodipodi.sourceforge.net/DTD/sodipodi-0.dtd"
   xmlns="http://www.w3.org/2000/svg"
   xmlns:svg="http://www.w3.org/2000/svg"><sodipodi:namedview
     id="namedview7"
     pagecolor="#505050"
     bordercolor="#eeeeee"
     borderopacity="1"
     inkscape:showpageshadow="0"
     inkscape:pageopacity="0"
     inkscape:pagecheckerboard="0"
     inkscape:deskcolor="#505050"
     inkscape:document-units="mm"
     showgrid="false" /><defs
     id="defs2" /><g
     inkscape:label="Layer 1"
     inkscape:groupmode="layer"
     id="layer1"
     transform="translate(337.00971,69.489798)"><path
       style="fill:#aea1ea;fill-opacity:1;stroke-width:0.264583"
       d="m -304.49678,-68.05719 c -0.70036,-0.84388 0.23058,-1.12637 4.39853,-1.33472 3.3648,-0.16821 3.89991,-0.13845 4.27613,0.23777 0.37737,0.37737 0.38259,0.4764 0.0426,0.80857 -0.28168,0.27521 -1.47221,0.42896 -4.36164,0.56325 -3.58779,0.16676 -4.0113,0.14003 -4.35564,-0.27487 z"
       id="path380"
       inkscape:export-filename="logo.png"
       inkscape:export-xdpi="86.7442"
       inkscape:export-ydpi="86.7442" /><path
       style="fill:#aea1ea;fill-opacity:1;stroke-width:0.264583"
       d="m -312.76793,-67.02476 c -0.0935,-0.0935 -4.92344,-0.26979 -10.73309,-0.39164 -5.80965,-0.12186 -10.87654,-0.30026 -11.25976,-0.39644 -0.92197,-0.2314 -0.94041,-1.10461 -0.0282,-1.33357 0.64123,-0.16094 18.55905,0.31674 24.5991,0.65581 2.88449,0.16192 2.91042,0.16927 2.91042,0.82483 0,0.65672 -0.0191,0.662 -2.65921,0.73628 -1.46257,0.0412 -2.73575,-0.002 -2.82929,-0.0953 z"
       id="path378" /><path
       style="fill:#aea1ea;fill-opacity:1;stroke-width:0.264583"
       d="m -335.86569,-61.33399 c -0.0994,-0.16086 -0.078,-0.39259 0.0475,-0.51496 0.3375,-0.3289 7.26849,-0.84351 10.01789,-0.7438 2.34058,0.0849 2.38125,0.0977 2.38125,0.74781 v 0.66146 l -6.13297,0.071 c -4.26385,0.0494 -6.18804,-0.0182 -6.31371,-0.22149 z"
       id="path376" /><path
       style="fill:#aea1ea;fill-opacity:1;stroke-width:0.264583"
       d="m -337.0009,-54.33817 c 0.18752,-0.97376 2.37174,-1.21238 12.32512,-1.34654 9.28283,-0.12511 9.32656,-0.12315 9.32656,0.4196 0,0.29992 -0.20836,0.65392 -0.46302,0.78666 -0.25466,0.13274 -5.14727,0.32752 -10.87245,0.43285 -9.99974,0.18396 -10.40577,0.17244 -10.31621,-0.29257 z"
       id="path374" /><path
       style="fill:#aea1ea;fill-opacity:1;stroke-width:0.264583"
       d="m -335.25912,-40.86778 c -0.48304,-0.0732 -0.7276,-0.27009 -0.7276,-0.58585 0,-0.59644 1.36398,-0.81228 5.13016,-0.8118 1.47127,1.9e-4 3.66237,-0.13763 4.86911,-0.30625 1.68421,-0.23535 2.26691,-0.23373 2.50759,0.007 0.62287,0.62286 -0.16741,1.20617 -2.08375,1.53804 -1.71419,0.29686 -8.09456,0.40144 -9.69551,0.15892 z"
       id="path372" /><path
       style="fill:#b2ebf9;fill-opacity:1;stroke-width:0.264583"
       d="m -276.27908,-34.76924 c -0.097,-0.097 -0.17639,-6.40733 -0.17639,-14.02292 v -13.84653 h 6.69885 c 7.96955,0 8.68129,0.13864 10.83991,2.1115 2.03413,1.85909 2.94002,3.93069 2.95259,6.75205 0.0134,3.0058 -0.60577,4.63112 -2.47591,6.49928 -2.08165,2.07946 -3.13983,2.4119 -8.15972,2.56352 l -4.03489,0.12186 v 4.99882 4.99881 h -2.73403 c -1.50371,0 -2.8134,-0.0794 -2.91041,-0.17639 z m 12.6586,-15.28581 c 1.31007,-0.54739 1.97948,-1.79086 1.98068,-3.67927 0.002,-3.14012 -1.12319,-3.94131 -5.75369,-4.09686 l -3.24115,-0.10889 v 4.13299 4.13298 h 3.05121 c 2.05696,0 3.3483,-0.12414 3.96295,-0.38095 z"
       id="path370" /><path
       style="fill:#b2ebf9;fill-opacity:1;stroke-width:0.264583"
       d="m -164.24446,-34.72906 c -3.19087,-0.89812 -5.31247,-2.62849 -6.6065,-5.38829 -0.6319,-1.34764 -0.69723,-1.78444 -0.69723,-4.66196 0,-2.94024 0.0547,-3.28632 0.73931,-4.6805 0.95354,-1.94175 3.14735,-3.95935 5.14856,-4.73501 2.08135,-0.80673 5.94262,-0.99041 8.27247,-0.39353 3.18048,0.8148 5.76821,3.11599 6.78456,6.03331 0.67894,1.94881 0.67024,5.93816 -0.0169,7.74448 -1.04184,2.73879 -2.88572,4.57012 -5.74179,5.70274 -1.89952,0.75328 -5.87344,0.94423 -7.88249,0.37876 z m 5.9493,-4.8008 c 0.63918,-0.33048 1.33778,-1.02329 1.82822,-1.81307 0.70197,-1.13042 0.79304,-1.51006 0.78762,-3.28334 -0.0107,-3.48384 -1.60871,-5.49771 -4.57611,-5.76678 -2.64247,-0.23961 -4.32734,0.6913 -5.37169,2.96791 -0.60631,1.32173 -0.65033,4.01591 -0.0876,5.3627 1.20855,2.89247 4.53044,4.02636 7.41956,2.53258 z"
       id="path368" /><path
       style="fill:#b2ebf9;fill-opacity:1;stroke-width:0.264583"
       d="m -192.77765,-34.72888 c -9.32881,-2.02676 -13.40516,-14.11432 -7.6534,-22.69458 4.24421,-6.33136 14.33467,-7.61627 20.84169,-2.65395 1.14036,0.86965 3.34747,3.43669 3.11546,3.62351 -0.0557,0.0449 -1.21496,0.66599 -2.57602,1.38019 l -2.47465,1.29857 -0.42841,-0.66146 c -1.89557,-2.92678 -6.27039,-4.26172 -9.90631,-3.02284 -1.68559,0.57434 -3.45819,2.21562 -4.34643,4.02443 -0.68832,1.40169 -0.74246,1.7435 -0.74246,4.68695 0,2.87995 0.0645,3.31023 0.6939,4.63021 0.89046,1.86742 2.11124,3.08669 3.9363,3.93141 1.2017,0.55621 1.847,0.67291 3.70417,0.66987 3.96514,-0.006 6.48503,-1.70249 7.52451,-5.0643 l 0.18407,-0.59531 h -3.85429 -3.85429 v -2.38125 -2.38125 h 6.61458 6.61459 v 7.67291 7.67292 h -2.24896 -2.24896 v -1.90717 -1.90718 l -1.12448,1.07271 c -0.61846,0.58999 -1.54804,1.32469 -2.06572,1.63268 -2.2035,1.31094 -6.27183,1.71879 -9.70489,0.97293 z"
       id="path366" /><path
       style="fill:#b2ebf9;fill-opacity:1;stroke-width:0.264583"
       d="m -218.88711,-34.84848 c -0.71579,-0.28648 -1.69805,-0.9053 -2.18281,-1.37515 l -0.88139,-0.85427 v 1.24252 1.24253 h -2.64583 -2.64584 v -14.94896 -14.94896 h 2.77813 2.77812 v 6.14429 c 0,5.61846 0.035,6.09431 0.40908,5.56025 0.22499,-0.32121 0.96913,-0.91325 1.65364,-1.31564 1.14592,-0.67362 1.46478,-0.73161 4.0227,-0.73161 2.51924,0 2.90666,0.0678 4.15742,0.72712 1.9713,1.03919 3.05082,2.07753 3.97945,3.82763 1.66601,3.13977 1.82438,7.41565 0.38831,10.48445 -1.06649,2.27906 -2.18127,3.45342 -4.24166,4.46839 -1.50738,0.74255 -2.07669,0.87476 -4.01226,0.93181 -1.74227,0.0514 -2.55183,-0.0521 -3.55706,-0.4544 z m 3.26065,-4.23507 c 1.35421,-0.38839 2.57324,-1.33184 3.25118,-2.51621 0.84689,-1.47958 0.85552,-4.27046 0.0184,-5.95767 -1.41858,-2.85914 -5.08173,-3.66277 -7.67863,-1.68457 -2.49644,1.90167 -2.81785,6.28113 -0.63215,8.61366 1.42529,1.52105 3.21343,2.06899 5.04121,1.54479 z"
       id="path364" /><path
       style="fill:#b2ebf9;fill-opacity:1;stroke-width:0.264583"
       d="m -246.95443,-34.4893 c -2.1492,-0.54112 -3.61631,-1.56529 -4.43422,-3.09544 -0.57068,-1.06766 -0.59588,-1.40861 -0.67332,-9.1128 l -0.0804,-8.00364 h 2.78009 2.78009 l 0.0785,7.0068 0.0785,7.00681 0.86564,0.86455 c 0.79948,0.79847 0.99566,0.86417 2.56683,0.85966 1.83692,-0.005 2.63473,-0.39741 3.69493,-1.81613 0.511,-0.6838 0.55077,-1.14734 0.62843,-7.32584 l 0.0829,-6.59585 h 2.76136 2.76135 v 10.05416 10.05417 h -2.64583 -2.64584 v -1.24013 -1.24012 l -0.7276,0.68185 c -1.3629,1.2772 -2.91261,1.85674 -5.21275,1.9494 -1.17119,0.0472 -2.36756,0.0258 -2.6586,-0.0474 z"
       id="path362" /><path
       style="fill:#aea1ea;fill-opacity:1;stroke-width:0.264583"
       d="m -323.27411,-29.15369 c -0.41565,-0.50083 -0.25151,-1.2064 0.92677,-3.98395 0.49386,-1.16417 1.26181,-3.4705 1.70655,-5.12517 1.0822,-4.02636 1.87939,-5.55086 4.14821,-7.93277 1.05079,-1.10318 1.85317,-2.06316 1.78304,-2.13328 -0.0701,-0.0701 -1.87985,0.03 -4.02161,0.22243 -2.14176,0.19246 -6.99366,0.40829 -10.782,0.47962 -6.18779,0.11651 -6.92486,0.0851 -7.2516,-0.30856 -0.23021,-0.27739 -0.27127,-0.53068 -0.11186,-0.69009 0.13852,-0.13852 3.34993,-0.3705 7.13647,-0.51551 3.78654,-0.14502 7.51823,-0.38383 8.29263,-0.53069 1.95611,-0.37097 5.91629,-0.34319 6.3037,0.0442 0.23861,0.23861 0.43505,0.19922 0.84171,-0.1688 0.44357,-0.40143 0.59874,-0.42338 0.94739,-0.13403 0.35982,0.29862 0.70484,0.0598 2.5185,-1.74322 1.15587,-1.14908 2.10157,-2.17589 2.10157,-2.28179 0,-0.10591 -0.80367,-0.22777 -1.78594,-0.2708 -1.58347,-0.0694 -1.78593,-0.13822 -1.78593,-0.6074 0,-0.48963 0.20146,-0.53478 2.69704,-0.6044 l 2.69704,-0.0752 3.05817,-3.20948 c 1.682,-1.76521 3.02817,-3.23264 2.9915,-3.26096 -0.0367,-0.0283 -0.78105,0.0514 -1.65417,0.17716 -0.87313,0.12576 -5.36539,0.30345 -9.98281,0.39486 -7.74938,0.15342 -8.40859,0.1316 -8.56795,-0.28367 -0.0949,-0.24743 -0.0481,-0.57442 0.10413,-0.72663 0.22979,-0.2298 11.20276,-0.70064 19.81029,-0.85004 1.61709,-0.0281 1.63312,-0.036 2.33929,-1.15256 0.87168,-1.37832 1.85646,-2.183 2.67158,-2.183 0.44696,0 0.80143,0.31876 1.29941,1.16851 0.4174,0.71224 1.53234,1.82276 2.85542,2.84409 4.37755,3.37919 5.77169,5.09971 5.38398,6.64445 -0.0832,0.33158 -1.5338,1.96869 -3.22351,3.63802 -1.68971,1.66933 -4.49658,4.78948 -6.23747,6.93367 -2.64844,3.26197 -3.86458,4.48602 -7.44815,7.49658 -2.35559,1.97893 -4.41732,3.91554 -4.58162,4.30356 -0.266,0.62818 -0.62918,0.7883 -3.31379,1.46095 -1.65828,0.41549 -4.56683,1.26357 -6.46345,1.88461 -4.5648,1.49473 -4.98765,1.57921 -5.40253,1.07931 z m 4.19917,-2.15442 c 0.13302,-0.13302 -1.05083,-1.43266 -1.30502,-1.43266 -0.0968,0 -0.32026,0.31663 -0.49658,0.70362 -0.25616,0.5622 -0.2514,0.74886 0.0237,0.92868 0.31339,0.20487 1.50751,0.0708 1.77793,-0.19964 z m 7.24371,-2.00837 1.26903,-0.37435 -1.06753,-0.85789 c -0.58714,-0.47184 -1.53406,-1.538 -2.10427,-2.36924 -0.57021,-0.83124 -1.66333,-2.20791 -2.42915,-3.05926 -1.3824,-1.53678 -1.39475,-1.54345 -1.71771,-0.92604 -0.17892,0.34203 -0.70449,1.9463 -1.16794,3.56505 l -0.84265,2.94318 1.27893,1.29974 1.27892,1.29975 2.11667,-0.5733 c 1.16417,-0.31531 2.68773,-0.74175 3.3857,-0.94764 z m 3.77469,-2.36141 c 0.42741,-0.45125 2.08809,-1.92263 3.6904,-3.26974 3.07304,-2.58358 5.05324,-4.60203 6.99489,-7.13002 0.98387,-1.28099 1.10977,-1.56991 0.76756,-1.76143 -0.5074,-0.28395 -1.97669,-1.51418 -5.62652,-4.71103 l -2.83041,-2.47914 -5.4386,5.51036 c -2.99123,3.0307 -5.62735,5.79843 -5.85804,6.15051 -0.40644,0.62031 -0.38589,0.66987 0.66315,1.59899 0.59543,0.52736 1.81785,1.93924 2.71649,3.13753 1.59352,2.12485 3.27913,3.77443 3.85689,3.77443 0.1579,0 0.63679,-0.36921 1.06419,-0.82046 z m 14.21548,-14.57985 1.32062,-1.37739 -0.88513,-0.67313 c -3.43101,-2.60922 -4.84006,-3.88682 -5.96911,-5.41227 -0.70959,-0.95873 -1.35893,-1.74315 -1.44298,-1.74315 -0.17725,-1e-5 -3.15448,3.06466 -3.15448,3.24713 0,0.0672 0.44648,0.42287 0.99219,0.79044 0.5457,0.36757 2.47885,1.99073 4.29589,3.60703 1.81704,1.6163 3.3529,2.93873 3.41303,2.93873 0.0601,0 0.70362,-0.61983 1.42997,-1.37739 z m 4.8372,-5.43563 c 0.69413,-1.55173 -0.16994,-2.81803 -3.77926,-5.53853 -1.8369,-1.38455 -3.05736,-2.59922 -3.33106,-3.31524 -0.0893,-0.2335 -0.27419,-0.1449 -0.58846,0.28191 -0.25207,0.34233 -1.04433,1.3266 -1.76059,2.18727 l -1.30229,1.56486 1.57071,1.91377 c 1.8879,2.30024 2.25536,2.64799 4.806,4.54814 l 1.98438,1.4783 1.00795,-1.13029 c 0.55438,-0.62166 1.18106,-1.51725 1.39262,-1.99019 z"
       id="path304" /></g></svg>
